<?xml version="1.0" encoding="utf-8"?>
<!-- Generator: Adobe Illustrator 18.1.1, SVG Export Plug-In . SVG Version: 6.00 Build 0)  -->
<svg version="1.1" xmlns="http://www.w3.org/2000/svg" xmlns:xlink="http://www.w3.org/1999/xlink" x="0px" y="0px"
	 viewBox="0 0 626 585" enable-background="new 0 0 626 585" xml:space="preserve">
<g id="Layer_1">
	<g>
		<path fill="none" stroke="#006837" stroke-miterlimit="10" d="M430.9,553.8c5.9,8.2,10.8,17.1,14.8,26.4"/>
		<path fill="none" stroke="#006837" stroke-miterlimit="10" d="M446.3,581c-1.8-8.7-3.6-17.5-3.8-26.3c-0.2-8.9,1.2-18,5.4-25.8"/>
		<path fill="none" stroke="#006837" stroke-miterlimit="10" d="M446.7,580.1c-0.2-11.7,3.3-23.4,9.9-33"/>
		<path fill="none" stroke="#009245" stroke-miterlimit="10" d="M423.1,556.4c5.9,8.2,10.8,17.1,14.8,26.4"/>
		<path fill="none" stroke="#009245" stroke-miterlimit="10" d="M438.5,583.6c-1.8-8.7-3.6-17.5-3.8-26.3c-0.2-8.9,1.2-18,5.4-25.8"
			/>
		<path fill="none" stroke="#009245" stroke-miterlimit="10" d="M438.9,582.7c-0.2-11.7,3.3-23.4,9.9-33"/>
	</g>
	<g>
		<path fill="none" stroke="#006837" stroke-miterlimit="10" d="M450.2,557c5.9,8.2,10.8,17.1,14.8,26.4"/>
		<path fill="none" stroke="#006837" stroke-miterlimit="10" d="M465.5,584.2c-1.8-8.7-3.6-17.5-3.8-26.3c-0.2-8.9,1.2-18,5.4-25.8"
			/>
		<path fill="none" stroke="#006837" stroke-miterlimit="10" d="M466,583.3c-0.2-11.7,3.3-23.4,9.9-33"/>
		<path fill="none" stroke="#009245" stroke-miterlimit="10" d="M442.4,559.7c5.9,8.2,10.8,17.1,14.8,26.4"/>
		<path fill="none" stroke="#009245" stroke-miterlimit="10" d="M457.8,586.8c-1.8-8.7-3.6-17.5-3.8-26.3c-0.2-8.9,1.2-18,5.4-25.8"
			/>
		<path fill="none" stroke="#009245" stroke-miterlimit="10" d="M458.2,586c-0.2-11.7,3.3-23.4,9.9-33"/>
	</g>
	<g>
		<path fill="none" stroke="#006837" stroke-miterlimit="10" d="M474.7,555.8c4.7,8.9,8.5,18.4,11.3,28.1"/>
		<path fill="none" stroke="#006837" stroke-miterlimit="10" d="M486.4,584.7c-0.6-8.9-1.3-17.8-0.4-26.6c0.9-8.8,3.5-17.7,8.7-24.9
			"/>
		<path fill="none" stroke="#006837" stroke-miterlimit="10" d="M487,583.9c1.3-11.6,6.3-22.7,14.1-31.5"/>
		<path fill="none" stroke="#009245" stroke-miterlimit="10" d="M466.7,557.4c4.7,8.9,8.5,18.4,11.3,28.1"/>
		<path fill="none" stroke="#009245" stroke-miterlimit="10" d="M478.4,586.3c-0.6-8.9-1.3-17.8-0.4-26.6c0.9-8.8,3.5-17.7,8.7-24.9
			"/>
		<path fill="none" stroke="#009245" stroke-miterlimit="10" d="M479,585.5c1.3-11.6,6.3-22.7,14.1-31.5"/>
	</g>
	<g>
		<path fill="none" stroke="#006837" stroke-miterlimit="10" d="M509.2,554.9c7.9,6.4,15.1,13.6,21.4,21.4"/>
		<path fill="none" stroke="#006837" stroke-miterlimit="10" d="M531.3,576.9c-4.1-7.9-8.1-15.8-10.8-24.3
			c-2.6-8.5-3.7-17.6-1.7-26.3"/>
		<path fill="none" stroke="#006837" stroke-miterlimit="10" d="M531.5,576c-3.3-11.2-3.1-23.4,0.7-34.5"/>
		<path fill="none" stroke="#009245" stroke-miterlimit="10" d="M502.5,559.5c7.9,6.4,15.1,13.6,21.4,21.4"/>
		<path fill="none" stroke="#009245" stroke-miterlimit="10" d="M524.6,581.5c-4.1-7.9-8.1-15.8-10.8-24.3
			c-2.6-8.5-3.7-17.6-1.7-26.3"/>
		<path fill="none" stroke="#009245" stroke-miterlimit="10" d="M524.8,580.6c-3.3-11.2-3.1-23.4,0.7-34.5"/>
	</g>
	<g>
		<polygon fill="#FFFFFF" stroke="#808080" stroke-miterlimit="10" points="279,498.8 299.3,540.5 316.5,539.3 330.4,501.2 		"/>
		<path fill="#333333" stroke="#808080" stroke-miterlimit="10" d="M10.1,342.9c0,0,34.2,71.8,91,47.5s9.8-151.2,118.4-96L199,312.8
			c0,0-35.3,12.8-33.6,59.8C165.3,372.6,49,529.8,10.1,342.9z"/>
		<path fill="#4D4D4D" stroke="#808080" stroke-miterlimit="10" d="M13.9,328.9c0,0,34.2,71.8,91,47.5c56.8-24.3,9.8-151.2,118.4-96
			l-20.5,18.3c0,0-35.3,12.8-33.6,59.8C169.1,358.5,52.8,515.7,13.9,328.9z"/>
		<path fill="#4D4D4D" stroke="#808080" stroke-miterlimit="10" d="M19,297.4c0,0,30.1,73.7,88.1,52.6s18.3-150.4,123.6-89.1
			l-21.5,17.2c0,0-36,10.8-37,57.8C172.3,335.9,47.3,486.2,19,297.4z"/>
		<path fill="#4D4D4D" stroke="#808080" stroke-miterlimit="10" d="M479.3,92.9c0,0-43.5-24.5-51.5-1.3s7.3,21,7.3,21
			s-29.8-13.8-34.1,8s8,20.3,8,20.3s-29.8-4.4-31.9,16s14.5,19.6,14.5,19.6s-31.2,0.7-29.8,13.8c1.5,13.1,14.5,21,14.5,21
			s-28.3-1.5-28.3,12.3s14.6,37.3,14.6,37.3S487.3,260.5,479.3,92.9z"/>
		<path fill="#FFFFFF" stroke="#808080" stroke-miterlimit="10" d="M606.2,184.4c0.7-18.9-24.7-66.5-24.7-66.5s-4.7-29.9-25.2-40
			c14.8-5.9-3.4-31.2-8.9-30.5c-5.1,0.6-8.4,19.1-8.9,22.2c-11-2.6-21.6-0.8-30.9,2.7c-7.6-21.8-31.5-17.1-31.5-17.1
			c-2.5,20.1,1,29.3,4.5,33.5c-1.9,1.7-3,2.5-3,2.5C402,113.1,365.7,261.5,365.7,261.5h-50.3c-67.5-45-125.3,29.2-125.3,29.2
			c-103.5,143.5,46.8,201.9,46.8,201.9c10.9,6.8,10.9,48.4,10.9,48.4l17.4-3l17.2-3l8.4-33.1l154.2,4.4l18.2,35.2H521
			c14.5-5,21.2-82.2,21.2-82.2c70.9-69.7,0-196.9,0-196.9c44.3,5.3,54.1-7.1,69.8-21.7C633.1,221.2,606.2,184.4,606.2,184.4z"/>
		<line stroke="#808080" stroke-miterlimit="10" x1="493.2" y1="548" x2="496.4" y2="502"/>
		<path fill="#4D4D4D" stroke="#808080" stroke-miterlimit="10" d="M501,69.8c0,0,27.9-24.6,34.3-0.3c0,0-4.5,25.7,2.7,25.7
			s-17.4,7.3-18.1-17.4c0,0-10.9,26.1,4.4,28.3c0,0-23.9-3.6-22.5-23.9C501.8,82.2,493.1,80,501,69.8z"/>

			<ellipse transform="matrix(0.9814 -0.1922 0.1922 0.9814 -15.9901 103.2516)" stroke="#808080" stroke-miterlimit="10" cx="524.3" cy="134.1" rx="7.6" ry="11.6"/>

			<ellipse transform="matrix(0.9792 -0.2027 0.2027 0.9792 -13.5981 117.9197)" stroke="#808080" stroke-miterlimit="10" cx="568.9" cy="125.3" rx="7.6" ry="11.6"/>
		<path fill="none" stroke="#808080" stroke-miterlimit="10" d="M540.8,262.3c-50.4-10-54.1-59.6-54.1-59.6"/>
		<path fill="#4D4D4D" stroke="#808080" stroke-miterlimit="10" d="M487.5,82.5c0,0-10.9-16.7-5.8-22.5c0,0,10.5,4,12.7,13.4
			L487.5,82.5z"/>
		<path stroke="#808080" stroke-miterlimit="10" d="M594.1,192.1c0,0,4.4-3.6,8.7,2.9c4.4,6.5-6.5,10.2-6.5,10.2L594.1,192.1z"/>
		<path stroke="#808080" stroke-miterlimit="10" d="M562.7,204.2c0,0-5-2.7-8,4.6s8.4,8.7,8.4,8.7L562.7,204.2z"/>
		<path fill="none" stroke="#808080" stroke-miterlimit="10" d="M478.2,203.2c0,0,9.6,4.3,18.2-4.3"/>
		<polygon stroke="#808080" stroke-miterlimit="10" points="437.4,555.2 501.3,572.6 490.9,541.2 459.7,531.6 		"/>
		<polygon stroke="#808080" stroke-miterlimit="10" points="485.1,564.2 548.9,557.4 528.4,531.9 496.9,534.1 		"/>
		<polygon stroke="#808080" stroke-miterlimit="10" points="235.4,565.5 299.4,561.6 280.1,534.1 248.4,534.9 		"/>
		<polygon stroke="#808080" stroke-miterlimit="10" points="282.3,562.2 337.8,559.4 321.1,532.6 293.7,533 		"/>
		<path fill="#FFFFFF" stroke="#808080" stroke-miterlimit="10" d="M240.4,495.6"/>
		<path fill="#C1272D" stroke="#808080" stroke-miterlimit="10" d="M367.9,256.2c0,0,130.7,71.8,188.5,30c0,0,28.9,47.1,19.3,103.9
			c0,0-13.9,64.3-8.6,79.3s-108.2,60.5-118.9,56.2s-290.2-23-291.3-28.4s-11.8-123.7,6.4-157.4c0,0,28.9-91,84.6-93.2
			C247.9,246.5,303.6,231.6,367.9,256.2z"/>
		<g>
			<polygon fill="#FFFFFF" stroke="#808080" stroke-miterlimit="10" points="386.7,351.1 331.6,362.9 353.8,309.2 306.4,305
				319.5,361.2 265.1,340.3 260.9,387.8 316.9,377.6 295.2,431.4 342.6,435.6 331.6,378 382.5,398.5 			"/>
		</g>
	</g>
</g>
<g id="Layer_3">
	<path opacity="5.000000e-02" stroke="#000000" stroke-miterlimit="10" d="M533.9,68.4l5.4,1c0,0,2.1-23.6,7.5-23.6
		c5.4,0,26.8,24.7,9.6,31.1c0,0,24.6,14.6,24.6,38.6s-4.3,0-4.3,0s35.3,50.1,27.8,68.3c0,0,36.4,43.9,0,62.1
		c0,0-20.3,20.4-34.3,18.2c0,0-39.6-2.1-41.8-6.4C526.4,253.5,656,259.9,533.9,68.4z"/>
	<path stroke="#000000" stroke-miterlimit="10" d="M285.4,483.8"/>
	<path opacity="8.000000e-02" stroke="#000000" stroke-miterlimit="10" d="M288.6,509l-8.6,29.5h-21.4
		C258.6,538.5,277.4,534.5,288.6,509z"/>
	<path opacity="8.000000e-02" stroke="#000000" stroke-miterlimit="10" d="M326.7,510.5l-8,23l-16.1,0.5
		C302.6,534.1,323.4,523.4,326.7,510.5z"/>
	<path opacity="0.1" stroke="#000000" stroke-miterlimit="10" d="M494.3,511.6l-1.6,28.9l-28.9-7
		C463.7,533.6,495.3,525.5,494.3,511.6z"/>
	<path opacity="0.1" stroke="#000000" stroke-miterlimit="10" d="M536.6,490.2c0,0,3.2,15.5-8,41.2l-20.9,3.2
		C507.7,534.6,539.8,497.2,536.6,490.2z"/>
	<path opacity="0.3" d="M510.3,62.9c0,0,21.4-12.6,23.6,5.5c0,0-0.5,25,3.2,27.2c0,0-13.4,5.4-17.7-18.7
		C519.4,76.8,529.1,62.9,510.3,62.9z"/>
	<path opacity="0.15" d="M154.8,266.4c0,0,18.2-43.9,62.1-10.7c0,0-25.7,17.1-26.8,26.8C189,292.1,231.9,235.3,154.8,266.4z"/>
	<path opacity="8.000000e-02" d="M476.1,92.3c0,0-79.3,61.6-79.3,176.2l-31.1-12.3C365.7,256.2,412.9,92.9,476.1,92.3z"/>
	<path opacity="0.13" d="M556.4,286.7c0,0,38.6,66.4,15,118.9c0,0-7.5,64.3-4.3,66.4c0,0-37.5,43.9-112.5,52.5
		c0,0-298.8-21.4-300.9-25.7C153.7,498.8,600.3,460.2,556.4,286.7z"/>
	<path opacity="7.000000e-02" d="M327.2,307.1l25.7,2.1l-21.4,54.6l54.6-11.8l-3.2,47.1l-51.4-20.3l11.2,57.3c0,0-35.9-4.3-31.1-1.6
		C316.5,437.2,339,334.9,327.2,307.1z"/>

		<text transform="matrix(1.1413 0 0 1 3.8071 41.1026)" fill="#0071BC" stroke="#0071BC" stroke-width="0.5" stroke-miterlimit="10" font-family="'DJBHollyBerryWonderland'" font-size="32.7039">The</text>

		<text transform="matrix(1.1413 0 0 1 4.0625 109.3906)" fill="#0071BC" stroke="#0071BC" stroke-width="0.5" stroke-miterlimit="10" font-family="'DJBHollyBerryWonderland'" font-size="53.5713">Knights</text>

		<text transform="matrix(1.1413 0 0 1 3.8071 173.084)" fill="#0071BC" stroke="#0071BC" stroke-width="0.5" stroke-miterlimit="10" font-family="'DJBHollyBerryWonderland'" font-size="53.5713">Templater</text>
	<g>
		<path fill="none" stroke="#006837" stroke-miterlimit="10" d="M544.2,535.1c1.2,10,1.4,20.2,0.5,30.3"/>
		<path fill="none" stroke="#006837" stroke-miterlimit="10" d="M544.8,566.3c2.6-8.5,5.2-17.1,9.2-25s9.6-15.3,17-20.1"/>
		<path fill="none" stroke="#006837" stroke-miterlimit="10" d="M545.6,565.8c5.4-10.4,14.1-19,24.4-24.3"/>
		<path fill="none" stroke="#009245" stroke-miterlimit="10" d="M536.1,533.7c1.2,10,1.4,20.2,0.5,30.3"/>
		<path fill="none" stroke="#009245" stroke-miterlimit="10" d="M536.8,564.9c2.6-8.5,5.2-17.1,9.2-25c4-7.9,9.6-15.3,17-20.1"/>
		<path fill="none" stroke="#009245" stroke-miterlimit="10" d="M537.5,564.4c5.4-10.4,14.1-19,24.4-24.3"/>
	</g>
	<g>
		<path fill="none" stroke="#006837" stroke-miterlimit="10" d="M224.9,551.6c7.8,6.4,14.9,13.7,21.2,21.6"/>
		<path fill="none" stroke="#006837" stroke-miterlimit="10" d="M246.8,573.8c-4-7.9-8-15.9-10.5-24.4c-2.5-8.5-3.6-17.7-1.5-26.3"
			/>
		<path fill="none" stroke="#006837" stroke-miterlimit="10" d="M247,572.9c-3.2-11.2-2.9-23.4,1-34.5"/>
		<path fill="none" stroke="#009245" stroke-miterlimit="10" d="M218.1,556.2c7.8,6.4,14.9,13.7,21.2,21.6"/>
		<path fill="none" stroke="#009245" stroke-miterlimit="10" d="M240,578.4c-4-7.9-8-15.9-10.5-24.4c-2.5-8.5-3.6-17.7-1.5-26.3"/>
		<path fill="none" stroke="#009245" stroke-miterlimit="10" d="M240.2,577.4c-3.2-11.2-2.9-23.4,1-34.5"/>
	</g>
	<g>
		<path fill="none" stroke="#006837" stroke-miterlimit="10" d="M330.5,545.1c-0.8,10.1-2.7,20.1-5.6,29.8"/>
		<path fill="none" stroke="#006837" stroke-miterlimit="10" d="M324.8,575.7c4.2-7.8,8.5-15.7,14-22.6c5.5-7,12.4-13,20.7-16.3"/>
		<path fill="none" stroke="#006837" stroke-miterlimit="10" d="M325.7,575.4c7.4-9.1,17.6-15.8,28.8-18.9"/>
		<path fill="none" stroke="#009245" stroke-miterlimit="10" d="M322.9,542.1c-0.8,10.1-2.7,20.1-5.6,29.8"/>
		<path fill="none" stroke="#009245" stroke-miterlimit="10" d="M317.2,572.8c4.2-7.8,8.5-15.7,14-22.6c5.5-7,12.4-13,20.7-16.3"/>
		<path fill="none" stroke="#009245" stroke-miterlimit="10" d="M318.1,572.4c7.4-9.1,17.6-15.8,28.8-18.9"/>
	</g>
	<g>
		<path fill="none" stroke="#006837" stroke-miterlimit="10" d="M296.8,549.9c-0.8,10.1-2.7,20.1-5.6,29.8"/>
		<path fill="none" stroke="#006837" stroke-miterlimit="10" d="M291.1,580.6c4.2-7.8,8.5-15.7,14-22.6c5.5-7,12.4-13,20.7-16.3"/>
		<path fill="none" stroke="#006837" stroke-miterlimit="10" d="M292,580.2c7.4-9.1,17.6-15.8,28.8-18.9"/>
		<path fill="none" stroke="#009245" stroke-miterlimit="10" d="M289.1,546.9c-0.8,10.1-2.7,20.1-5.6,29.8"/>
		<path fill="none" stroke="#009245" stroke-miterlimit="10" d="M283.5,577.6c4.2-7.8,8.5-15.7,14-22.6c5.5-7,12.4-13,20.7-16.3"/>
		<path fill="none" stroke="#009245" stroke-miterlimit="10" d="M284.3,577.2c7.4-9.1,17.6-15.8,28.8-18.9"/>
	</g>
	<g>
		<path fill="none" stroke="#006837" stroke-miterlimit="10" d="M249,556.1c8.6,5.3,16.6,11.6,23.9,18.6"/>
		<path fill="none" stroke="#006837" stroke-miterlimit="10" d="M273.7,575.2c-5-7.3-10-14.7-13.7-22.8c-3.6-8.1-5.9-17-4.9-25.9"/>
		<path fill="none" stroke="#006837" stroke-miterlimit="10" d="M273.8,574.3c-4.7-10.7-5.9-22.9-3.6-34.3"/>
		<path fill="none" stroke="#009245" stroke-miterlimit="10" d="M242.9,561.6c8.6,5.3,16.6,11.6,23.9,18.6"/>
		<path fill="none" stroke="#009245" stroke-miterlimit="10" d="M267.6,580.7c-5-7.3-10-14.7-13.7-22.8c-3.6-8.1-5.9-17-4.9-25.9"/>
		<path fill="none" stroke="#009245" stroke-miterlimit="10" d="M267.6,579.7c-4.7-10.7-5.9-22.9-3.6-34.3"/>
	</g>
	<g>
		<path fill="none" stroke="#0071BC" stroke-width="2" stroke-miterlimit="10" d="M114.4,217.7c0,0-38.2-32.7-45.4,0
			c-7.3,32.7,83.6-3.6,83.6-3.6"/>
		<path fill="none" stroke="#0071BC" stroke-width="2" stroke-miterlimit="10" d="M186.6,211.4c0,0,38.9,31.8,45.4-1.1
			c6.5-32.9-83.5,5.7-83.5,5.7"/>
	</g>
</g>
</svg>
